# xmcd
#
# Track frame offsets: 
#        150
#        17180
#        37955
#        60130
#        80157
#        98412
#        113932
#        131770
#        150475
#        166390
#        185445
#        205172
#        223540
#        244932
#        264555
#        284582
#        298785
#
# Disc length: 4301 seconds
#
# Revision: 2
# Processed by: cddbd v1.5.2PL0 Copyright (c) Steve Scherf et al.
# Submitted via: ExactAudioCopy v0.95a5
#
DISCID=f310cb11
DTITLE=Brian McKnight - k-1989-2002 From There To Here
DYEAR=2002
DGENRE=R&B
TTITLE0=Let Me Love You
TTITLE1=The Way Love Goes
TTITLE2=One Last Cry
TTITLE3=Love Is (feat. Vanessa Williams)
TTITLE4=Crazy Love
TTITLE5=On The Down Low
TTITLE6=Still In Love
TTITLE7=Anytime
TTITLE8=The Only One For Me
TTITLE9=You Should Be Mine (Don't Waste Your Time) (feat. Mase)
TTITLE10=Back At One
TTITLE11=6-8-12
TTITLE12=Love Of My Life
TTITLE13=Home
TTITLE14=The Way I Do (feat. Mr. Cheeks and Baby)
TTITLE15=Thank You (For Saving My Life) (feat. Jo Kyu Chan)
TTITLE16=When You Wanna Come (feat. Urban Xchange)
EXTD=
EXTT0=
EXTT1=
EXTT2=
EXTT3=
EXTT4=
EXTT5=
EXTT6=
EXTT7=
EXTT8=
EXTT9=
EXTT10=
EXTT11=
EXTT12=
EXTT13=
EXTT14=
EXTT15=
EXTT16=
PLAYORDER=
